<svg xmlns="http://www.w3.org/2000/svg" xmlns:xlink="http://www.w3.org/1999/xlink" width="1366" height="768" viewBox="0 0 1366 768">
  <defs>
    <clipPath id="clip-Artboard_1">
      <rect width="1366" height="768"/>
    </clipPath>
  </defs>
  <g id="Artboard_1" data-name="Artboard 1" clip-path="url(#clip-Artboard_1)">
    <rect width="1366" height="768" fill="#fff"/>
    <g id="Group_7" data-name="Group 7">
      <g id="Group_1" data-name="Group 1">
        <path id="Path_1" data-name="Path 1" d="M753.114,310.629c-1.515,3.5-1.515,7.871-1.01,11.807,0,4.372,0,8.745-2.021,11.369s-7.073,3.935-12.125,5.247c-4.547,1.312-8.589,2.186-12.631,4.373-3.536,2.186-6.062,5.684-8.588,8.745-3.032,3.935-6.063,7.433-9.6,8.308s-8.084-.437-13.136-1.749c-4.547-1.312-9.094-2.624-13.641-2.624s-9.094,1.312-13.641,2.624c-5.052,1.312-9.6,3.061-13.135,1.749-3.537-.875-6.568-4.373-9.6-8.308-2.526-3.061-5.052-6.559-8.589-8.745s-8.083-3.5-12.63-4.373c-5.052-1.312-10.1-2.624-12.125-5.247s-2.021-7-2.021-11.369a46.657,46.657,0,0,0-1.011-11.807c-1.515-3.5-4.041-6.559-6.568-9.619-3.031-3.5-6.567-7-6.567-10.495s3.031-7,6.567-10.494c2.527-3.061,5.558-6.122,6.568-9.62,1.516-3.5,1.516-7.871,1.011-11.806,0-4.373,0-8.746,2.021-11.369s7.073-3.936,12.125-5.248c4.547-1.311,8.588-2.186,12.63-4.372,3.537-2.187,6.063-5.685,8.589-8.746,3.031-3.935,6.062-7.433,9.6-8.308s8.083.438,13.135,1.749c4.547,1.312,9.094,2.624,13.641,2.624s9.094-1.312,13.641-2.624c5.052-1.311,9.6-3.061,13.136-1.749,3.536.875,6.567,4.373,9.6,8.308,2.526,3.061,5.052,6.559,8.588,8.746s8.084,3.5,12.631,4.372c5.052,1.312,10.1,2.624,12.125,5.248s2.021,7,2.021,11.369a46.7,46.7,0,0,0,1.01,11.806c1.516,3.5,4.042,6.559,6.568,9.62,3.031,3.5,6.568,7,6.568,10.494s-3.032,7-6.568,10.495C757.156,304.07,754.63,307.131,753.114,310.629Z" fill="#85bd14"/>
        <path id="Path_2" data-name="Path 2" d="M663.508,240.353c-9.185,0-16.993,7.349-16.993,16.534s7.349,16.533,16.993,16.533,16.993-7.348,16.993-16.533S672.693,240.353,663.508,240.353Zm0,26.638c-5.511,0-10.1-4.593-10.1-9.645a9.807,9.807,0,0,1,10.1-9.644c5.511,0,10.1,4.592,10.1,9.644S669.019,266.991,663.508,266.991Z" fill="#fff"/>
        <path id="Path_3" data-name="Path 3" d="M626.031,263.923a11.941,11.941,0,0,0,0,23.882,11.858,11.858,0,0,0,11.941-11.941A12.159,12.159,0,0,0,626.031,263.923Zm-.46,16.993a5.052,5.052,0,1,1,5.052-5.052A5.1,5.1,0,0,1,625.571,280.916Z" fill="#fff"/>
        <path id="Path_4" data-name="Path 4" d="M635.537,306.418a16.074,16.074,0,1,0,16.074,16.074A16.273,16.273,0,0,0,635.537,306.418Zm0,25.259a9.185,9.185,0,1,1,9.185-9.185A9.213,9.213,0,0,1,635.537,331.677Z" fill="#fff"/>
        <path id="Path_5" data-name="Path 5" d="M700.778,318.359a16.533,16.533,0,1,0,16.533,16.533C717.771,325.707,710.422,318.359,700.778,318.359Zm0,26.178a9.419,9.419,0,0,1-9.645-9.645,9.645,9.645,0,0,1,19.289,0C710.882,340.4,706.289,344.537,700.778,344.537Z" fill="#fff"/>
        <path id="Path_6" data-name="Path 6" d="M732.467,285.153a13.533,13.533,0,0,0-13.778,13.778,13.778,13.778,0,1,0,27.556,0A13.532,13.532,0,0,0,732.467,285.153Zm0,20.667a6.889,6.889,0,1,1,6.889-6.889A6.764,6.764,0,0,1,732.467,305.82Z" fill="#fff"/>
        <path id="Path_7" data-name="Path 7" d="M712.9,240.639a19.289,19.289,0,1,0,19.289,19.289A19.405,19.405,0,0,0,712.9,240.639Zm0,32.149a12.4,12.4,0,1,1,12.4-12.4A12.348,12.348,0,0,1,712.9,272.788Z" fill="#fff"/>
        <path id="Path_8" data-name="Path 8" d="M687.7,279.735l-38.476,9.684a5.53,5.53,0,0,0-.92,10.4l10.474,4.716a5.532,5.532,0,0,1,3.2,4.258l1.628,11.37a5.531,5.531,0,0,0,10.254,2l19.964-34.286A5.53,5.53,0,0,0,687.7,279.735Z" fill="#016160"/>
        <path id="Path_9" data-name="Path 9" d="M684.405,363.1c2.526.437,4.547,1.311,7.073,1.749,4.042,1.311,8.589,2.623,13.136,2.623a19.771,19.771,0,0,0,5.052-.437c6.062-1.749,10.1-6.559,13.64-10.932,1.516-1.749,2.527-3.5,4.042-4.81l10.1,11.807-5.557,3.06,4.547,5.248,17.177-10.932-4.547-5.247-5.557,3.5-10.1-11.806a36.455,36.455,0,0,1,6.568-1.749c6.062-1.75,12.125-3.061,16.166-7.434,3.537-4.373,3.537-10.057,3.537-15.3v-6.122l16.167,4.373-2.021,5.684,7.073,2.186,6.568-17.49L780.4,308.88l-2.021,5.248-16.167-4.373c1.01-1.312,2.526-3.061,4.042-4.81,3.536-4.373,8.083-8.745,8.083-14.43s-4.042-10.494-8.083-14.43c-1.516-1.749-3.032-3.061-4.042-4.81l16.167-4.372,2.021,5.684,7.073-2.186L780.9,252.91l-7.073,2.186,2.021,5.685-16.167,4.373v-6.122c0-5.247.505-10.932-3.537-15.305-3.536-4.372-10.1-6.121-16.166-7.433-2.526-.437-4.547-1.312-6.568-1.749l10.1-11.806,5.557,3.5,4.547-5.247-17.177-10.932-4.547,4.81,5.557,3.5-10.1,11.806a19.852,19.852,0,0,1-4.042-4.81c-3.536-4.372-7.578-9.182-13.64-10.931s-12.125,0-17.683,1.749a58.423,58.423,0,0,1-7.073,1.749v.2h-7.578v.24c-2.526-.437-4.547-1.312-7.073-1.749-6.063-1.749-12.125-3.5-17.683-1.749-6.062,1.749-10.1,6.559-13.64,10.931-1.516,1.75-2.526,3.5-4.042,4.81L624.79,218.8l5.557-3.5-4.547-5.247-18.188,10.057,4.547,5.247,5.558-3.5,10.1,11.806a36.458,36.458,0,0,1-6.568,1.749c-6.062,1.749-12.125,3.061-16.167,7.434-3.536,4.373-3.536,10.057-3.536,15.3v6.122l-16.167-4.373,2.021-5.684-7.073-1.312L573.763,270.4l7.073,2.186,2.021-5.684,16.167,4.372c-1.011,1.312-2.526,3.061-4.042,4.81-3.537,4.373-8.084,8.746-8.084,14.43s4.042,10.495,8.084,14.43c1.516,1.749,3.031,3.061,4.042,4.81l-16.167,4.373-2.021-5.685-7.073,2.186,6.568,17.491,7.073-2.186-2.021-5.247,16.167-4.373v6.122c0,5.247-.506,10.931,3.536,15.3,3.537,4.373,10.1,6.122,16.167,7.434,2.526.437,4.547,1.311,6.568,1.749l-10.1,11.806-5.558-3.5-4.547,5.247L624.79,371.41l4.547-5.248-5.558-3.5,10.1-11.806a19.808,19.808,0,0,1,4.042,4.81c3.537,4.373,7.578,9.183,13.641,10.932s12.125,0,17.682-1.749a58.15,58.15,0,0,1,7.073-1.749m76.793-52.473c-1.515,3.5-1.515,7.871-1.01,11.807,0,4.372,0,8.745-2.021,11.369s-7.073,3.935-12.125,5.247c-4.547,1.312-8.589,2.186-12.631,4.373-3.536,2.186-6.062,5.684-8.588,8.745-3.032,3.935-6.063,7.433-9.6,8.308s-8.084-.437-13.136-1.749c-4.547-1.312-9.094-2.624-13.641-2.624s-9.094,1.312-13.641,2.624c-5.052,1.312-9.6,3.061-13.135,1.749-3.537-.875-6.568-4.373-9.6-8.308-2.526-3.061-5.052-6.559-8.589-8.745s-8.083-3.5-12.63-4.373c-5.052-1.312-10.1-2.624-12.125-5.247s-2.021-7-2.021-11.369a46.657,46.657,0,0,0-1.011-11.807c-1.515-3.5-4.041-6.559-6.568-9.619-3.031-3.5-6.567-7-6.567-10.495s3.031-7,6.567-10.494c2.527-3.061,5.558-6.122,6.568-9.62,1.516-3.5,1.516-7.871,1.011-11.806,0-4.373,0-8.746,2.021-11.369s7.073-3.936,12.125-5.248c4.547-1.311,8.588-2.186,12.63-4.372,3.537-2.187,6.063-5.685,8.589-8.746,3.031-3.935,6.062-7.433,9.6-8.308s8.083.438,13.135,1.749c4.547,1.312,9.094,2.624,13.641,2.624s9.094-1.312,13.641-2.624c5.052-1.311,9.6-3.061,13.136-1.749,3.536.875,6.567,4.373,9.6,8.308,2.526,3.061,5.052,6.559,8.588,8.746s8.084,3.5,12.631,4.372c5.052,1.312,10.1,2.624,12.125,5.248s2.021,7,2.021,11.369a46.7,46.7,0,0,0,1.01,11.806c1.516,3.5,4.042,6.559,6.568,9.62,3.031,3.5,6.568,7,6.568,10.494s-3.032,7-6.568,10.495C757.156,304.07,754.63,307.131,753.114,310.629Z" fill="#016160"/>
      </g>
      <g id="Group_2" data-name="Group 2">
        <path id="Path_10" data-name="Path 10" d="M616.787,557.184l-12.126-13.692v13.692h-3.533V528.876h3.533v12.849L616.3,528.876h4.417l-11.966,13.773L621.2,557.184Z" fill="#016160"/>
        <path id="Path_11" data-name="Path 11" d="M622.527,549.113V548.03h3.534v1.284c0,3.011,2.73,5.059,7.066,5.059,4.055,0,6.706-1.847,6.706-4.9,0-7.388-16.663-3.373-16.663-13.371,0-4.3,2.97-7.75,9.636-7.75s9.958,3.373,9.958,8.151v1.246H639.27v-1.366c0-2.73-2.369-4.658-6.464-4.658-3.9,0-6.1,1.687-6.1,4.3,0,6.425,16.622,2.932,16.663,13.291.04,4.738-3.493,8.392-10.32,8.392C626.3,557.706,622.527,554.132,622.527,549.113Z" fill="#016160"/>
        <path id="Path_12" data-name="Path 12" d="M663.2,549.8h-11l-2.489,7.388h-3.452l9.033-28.308h4.858l9.075,28.308h-3.493Zm-9.878-3.373h8.793L657.7,532.571Z" fill="#016160"/>
      </g>
      <g id="Group_3" data-name="Group 3">
        <path id="Path_13" data-name="Path 13" d="M546.672,429.363V409.055c0-9.8,6.507-15.948,18.95-15.948s19.022,6.15,19.022,15.948v3.36h-6.507v-2.86c0-6.722-3.791-10.441-12.444-10.441-8.867,0-12.728,3.719-12.728,10.441v19.307c0,6.723,3.861,10.441,12.657,10.441,8.724,0,12.515-3.718,12.515-10.441V426h6.507v3.361c0,9.8-6.507,15.947-18.951,15.947S546.672,439.16,546.672,429.363Z" fill="#016160"/>
        <path id="Path_14" data-name="Path 14" d="M593.083,429.435V409.269c0-9.94,6.436-16.162,19.093-16.162,12.728,0,19.093,6.222,19.093,16.162v20.166c0,9.8-6.365,15.946-19.021,15.946C599.519,445.381,593.083,439.232,593.083,429.435Zm31.893-.573V409.77c0-6.865-3.575-10.656-12.728-10.656-9.225,0-12.872,3.791-12.872,10.656v19.092c0,6.794,3.575,10.512,12.8,10.512S624.976,435.656,624.976,428.862Z" fill="#016160"/>
        <path id="Path_15" data-name="Path 15" d="M670.246,444.452,661.092,423.5H647.219v20.952h-6.292V394.037h19.735c9.868,0,15.446,4.935,15.446,13.23V410.2c0,6.149-3.073,10.44-8.58,12.3l9.3,21.954Zm-23.027-26.959h13.8c6.005,0,8.866-2.432,8.866-7.294v-2.932c0-4.792-2.861-7.3-8.8-7.3H647.219Z" fill="#016160"/>
        <path id="Path_16" data-name="Path 16" d="M684.262,429.435V409.269c0-9.94,6.436-16.162,19.093-16.162,12.729,0,19.093,6.222,19.093,16.162v20.166c0,9.8-6.364,15.946-19.021,15.946C690.7,445.381,684.262,439.232,684.262,429.435Zm31.893-.573V409.77c0-6.865-3.575-10.656-12.728-10.656-9.225,0-12.872,3.791-12.872,10.656v19.092c0,6.794,3.575,10.512,12.8,10.512S716.155,435.656,716.155,428.862Z" fill="#016160"/>
        <path id="Path_17" data-name="Path 17" d="M766.644,394.037v50.415h-5.865l-22.811-38.83v38.83h-5.862V394.037h5.862l22.811,38.9v-38.9Z" fill="#016160"/>
        <path id="Path_18" data-name="Path 18" d="M803.834,431.294H784.239l-4.433,13.158h-6.149l16.088-50.415H798.4l16.163,50.415h-6.221Zm-17.592-6.007H801.9l-7.868-24.67Z" fill="#016160"/>
      </g>
      <g id="Group_5" data-name="Group 5">
        <rect id="Rectangle_1" data-name="Rectangle 1" width="45.883" height="29.824" transform="translate(546.41 528.118)" fill="#006c35"/>
        <g id="Group_4" data-name="Group 4">
          <path id="Path_19" data-name="Path 19" d="M581.29,548.225a1.354,1.354,0,0,0-.143-.007H578.69v-.3a1.4,1.4,0,1,0-2.794,0v.3h-18.34a1.4,1.4,0,1,0,0,2.794H575.9v.3a1.4,1.4,0,0,0,1.4,1.4h0a1.4,1.4,0,0,0,1.4-1.4v-.3h2.457a1.4,1.4,0,0,0,.143-2.787Z" fill="#f0f9ff"/>
          <path id="Path_20" data-name="Path 20" d="M561.61,545.3a3.336,3.336,0,0,0,3.332-3.333v-5.313a.538.538,0,0,1,1.077,0v5.313a3.331,3.331,0,0,0,5.688,2.356c.029-.03.058-.06.086-.091l.024-.025a3.316,3.316,0,0,0,.867-2.24,1.4,1.4,0,1,0-2.794,0,.538.538,0,0,1-.538.538h0a.54.54,0,0,1-.539-.539v-5.313a3.332,3.332,0,0,0-6.665,0v5.313a.539.539,0,1,1-1.077,0,1.4,1.4,0,0,0-2.794,0A3.337,3.337,0,0,0,561.61,545.3Z" fill="#f0f9ff"/>
          <path id="Path_21" data-name="Path 21" d="M571.287,538.056h0a1.4,1.4,0,0,0,1.4-1.4.538.538,0,0,1,1.077,0v5.313a3.333,3.333,0,1,0,6.665,0v-7.248a1.4,1.4,0,0,0-2.794,0v7.248a.539.539,0,0,1-1.077,0v-5.313a3.332,3.332,0,0,0-6.665,0A1.4,1.4,0,0,0,571.287,538.056Z" fill="#f0f9ff"/>
          <path id="Path_22" data-name="Path 22" d="M559.674,539.393a1.4,1.4,0,0,0,1.4-1.4v-3.271a1.4,1.4,0,0,0-2.794,0v3.271A1.4,1.4,0,0,0,559.674,539.393Z" fill="#f0f9ff"/>
        </g>
      </g>
      <g id="Group_6" data-name="Group 6">
        <path id="Path_23" data-name="Path 23" d="M596.864,508.278h-10V474.984l-9.719,33.294h-7.929L559.5,475.127v33.151h-10V457.552h13.86l9.86,29.935L583,457.552h13.86Z" fill="#85bd14"/>
        <path id="Path_24" data-name="Path 24" d="M629.38,467.555v11.074h18.792v10H629.38v9.644h21.65v10H618.307V457.552H651.03v10Z" fill="#85bd14"/>
        <path id="Path_25" data-name="Path 25" d="M740.419,467.555v11.074h18.792v10H740.419v9.644h21.65v10H729.346V457.552h32.723v10Z" fill="#85bd14"/>
        <path id="Path_26" data-name="Path 26" d="M706.049,467.555h-13.5v40.723H681.472V467.555H667.825v-10h38.224Z" fill="#85bd14"/>
        <path id="Path_27" data-name="Path 27" d="M800.941,489.988h-8.929v18.29H780.938V457.552H802.3c10,0,16.648,5.716,16.648,14.646v3.144a13.477,13.477,0,0,1-7.145,12.432l7.788,20.5h-11.5Zm-8.929-10h11c3,0,4.858-1.5,4.858-4.144V471.7c0-2.643-1.856-4.143-4.786-4.143H792.012Z" fill="#85bd14"/>
      </g>
    </g>
  </g>
</svg>
