<svg xmlns="http://www.w3.org/2000/svg" width="270.093" height="322.884" viewBox="0 0 270.093 322.884">
  <g id="Group_7" data-name="Group 7" transform="translate(-535.497 -210.058)">
    <g id="Group_1" data-name="Group 1">
      <path id="Path_1" data-name="Path 1" d="M706.512,301.927c-1.07,3.163-1.07,7.114-.713,10.672,0,3.952,0,7.9-1.427,10.276s-5,3.557-8.563,4.743c-3.211,1.186-6.066,1.976-8.92,3.953-2.5,1.976-4.281,5.138-6.065,7.9-2.141,3.557-4.282,6.719-6.779,7.509s-5.709-.395-9.277-1.581c-3.211-1.186-6.423-2.372-9.634-2.372s-6.423,1.186-9.634,2.372c-3.568,1.186-6.779,2.767-9.276,1.581-2.5-.791-4.639-3.953-6.779-7.509-1.784-2.767-3.568-5.929-6.066-7.9a23.342,23.342,0,0,0-8.92-3.953c-3.568-1.186-7.136-2.372-8.563-4.743s-1.427-6.324-1.427-10.276a53.664,53.664,0,0,0-.714-10.672,39.781,39.781,0,0,0-4.639-8.694c-2.141-3.163-4.638-6.325-4.638-9.486s2.141-6.324,4.638-9.485c1.785-2.767,3.925-5.534,4.639-8.7,1.071-3.162,1.071-7.114.714-10.671,0-3.953,0-7.905,1.427-10.276s5-3.558,8.563-4.744c3.211-1.185,6.065-1.976,8.92-3.952,2.5-1.977,4.282-5.139,6.066-7.905,2.141-3.557,4.281-6.719,6.779-7.509s5.708.4,9.276,1.581c3.211,1.186,6.422,2.372,9.634,2.372s6.422-1.186,9.634-2.372c3.568-1.185,6.779-2.767,9.277-1.581,2.5.791,4.638,3.953,6.779,7.509,1.784,2.767,3.568,5.929,6.065,7.905a23.361,23.361,0,0,0,8.92,3.952c3.568,1.186,7.136,2.372,8.563,4.744s1.427,6.324,1.427,10.276a53.713,53.713,0,0,0,.713,10.671,39.865,39.865,0,0,0,4.639,8.7c2.141,3.162,4.639,6.324,4.639,9.485s-2.141,6.324-4.639,9.486A39.839,39.839,0,0,0,706.512,301.927Z" transform="translate(0 0)" fill="#85bd14"/>
      <path id="Path_2" data-name="Path 2" d="M663.508,240.353c-9.185,0-16.993,7.349-16.993,16.534s7.349,16.533,16.993,16.533,16.993-7.348,16.993-16.533S672.693,240.353,663.508,240.353Zm0,26.638c-5.511,0-10.1-4.593-10.1-9.645a9.807,9.807,0,0,1,10.1-9.644c5.511,0,10.1,4.592,10.1,9.644S669.019,266.991,663.508,266.991Z" transform="translate(-20.427 -3.197)" fill="#fff"/>
      <path id="Path_3" data-name="Path 3" d="M626.031,263.923a11.941,11.941,0,0,0,0,23.882,11.858,11.858,0,0,0,11.941-11.941A12.159,12.159,0,0,0,626.031,263.923Zm-.46,16.993a5.052,5.052,0,1,1,5.052-5.052A5.1,5.1,0,0,1,625.571,280.916Z" transform="translate(-10.72 -5.305)" fill="#fff"/>
      <path id="Path_4" data-name="Path 4" d="M635.537,306.418a16.074,16.074,0,1,0,16.074,16.074A16.273,16.273,0,0,0,635.537,306.418Zm0,25.259a9.185,9.185,0,1,1,9.185-9.185A9.213,9.213,0,0,1,635.537,331.677Z" transform="translate(-12.701 -10.097)" fill="#fff"/>
      <path id="Path_5" data-name="Path 5" d="M700.778,318.359a16.533,16.533,0,1,0,16.533,16.533C717.771,325.707,710.422,318.359,700.778,318.359Zm0,26.178a9.419,9.419,0,0,1-9.645-9.645,9.645,9.645,0,0,1,19.289,0C710.882,340.4,706.289,344.537,700.778,344.537Z" transform="translate(-30.866 -19.178)" fill="#fff"/>
      <path id="Path_6" data-name="Path 6" d="M732.467,285.153a13.533,13.533,0,0,0-13.778,13.778,13.778,13.778,0,1,0,27.556,0A13.532,13.532,0,0,0,732.467,285.153Zm0,20.667a6.889,6.889,0,1,1,6.889-6.889A6.764,6.764,0,0,1,732.467,305.82Z" transform="translate(-39.286 -7.599)" fill="#fff"/>
      <path id="Path_7" data-name="Path 7" d="M712.9,240.639a19.289,19.289,0,1,0,19.289,19.289A19.405,19.405,0,0,0,712.9,240.639Zm0,32.149a12.4,12.4,0,1,1,12.4-12.4A12.348,12.348,0,0,1,712.9,272.788Z" transform="translate(-34.533 -3.372)" fill="#fff"/>
      <path id="Path_8" data-name="Path 8" d="M676.846,279.692l-28.682,7.324a4.2,4.2,0,0,0-.686,7.869l7.808,3.567a4.177,4.177,0,0,1,2.388,3.22l1.214,8.6a4.107,4.107,0,0,0,7.644,1.512l14.882-25.931A4.167,4.167,0,0,0,676.846,279.692Z" transform="translate(-17.913 -4.058)" fill="#016160"/>
      <path id="Path_9" data-name="Path 9" d="M658.28,350.261c1.93.4,3.473,1.2,5.4,1.6,3.088,1.2,6.561,2.4,10.034,2.4a12.677,12.677,0,0,0,3.859-.4c4.631-1.6,7.718-6.009,10.419-10.015a42.07,42.07,0,0,1,3.088-4.406l7.718,10.816-4.245,2.8,3.473,4.808,13.121-10.015-3.473-4.807-4.245,3.2-7.718-10.815a24.257,24.257,0,0,1,5.017-1.6c4.631-1.6,9.262-2.8,12.349-6.81,2.7-4.006,2.7-9.213,2.7-14.02V307.4l12.35,4.006-1.544,5.207,5.4,2,5.017-16.022-5.4-2-1.544,4.808-12.35-4.006c.771-1.2,1.93-2.8,3.088-4.406,2.7-4.006,6.174-8.011,6.174-13.219s-3.088-9.613-6.174-13.219a30.509,30.509,0,0,1-3.088-4.406l12.35-4.005,1.544,5.207,5.4-2-5.017-16.023-5.4,2,1.544,5.208-12.35,4.006v-5.608c0-4.807.386-10.015-2.7-14.021-2.7-4.005-7.718-5.607-12.349-6.809-1.93-.4-3.473-1.2-5.017-1.6l7.718-10.815,4.245,3.2,3.473-4.807L698.03,210.058l-3.473,4.406,4.245,3.2-7.718,10.815A17.8,17.8,0,0,1,688,224.078c-2.7-4.005-5.789-8.412-10.419-10.014s-9.262,0-13.508,1.6a38.623,38.623,0,0,1-5.4,1.6v.18h-5.789v.22c-1.93-.4-3.473-1.2-5.4-1.6-4.631-1.6-9.262-3.2-13.508-1.6-4.631,1.6-7.718,6.009-10.419,10.014a41.771,41.771,0,0,1-3.088,4.406l-7.718-10.815,4.245-3.2-3.473-4.807-13.893,9.213,3.473,4.807,4.246-3.2,7.718,10.815a24.259,24.259,0,0,1-5.017,1.6c-4.631,1.6-9.262,2.8-12.35,6.81-2.7,4.006-2.7,9.213-2.7,14.02v5.608l-12.35-4.006,1.544-5.207-5.4-1.2-5.017,16.023,5.4,2,1.544-5.207,12.35,4.005c-.772,1.2-1.93,2.8-3.088,4.406-2.7,4.006-6.175,8.012-6.175,13.219s3.088,9.614,6.175,13.219a30.579,30.579,0,0,1,3.088,4.406L580.71,305.4l-1.544-5.208-5.4,2,5.017,16.023,5.4-2-1.544-4.807,12.35-4.006v5.608c0,4.807-.387,10.014,2.7,14.02,2.7,4.006,7.718,5.608,12.35,6.81,1.93.4,3.473,1.2,5.017,1.6l-7.718,10.815-4.246-3.2-3.473,4.807,13.122,10.015,3.473-4.808-4.246-3.2,7.718-10.815a17.763,17.763,0,0,1,3.088,4.406c2.7,4.006,5.789,8.413,10.42,10.015s9.262,0,13.507-1.6a38.448,38.448,0,0,1,5.4-1.6m58.661-48.07c-1.157,3.205-1.157,7.211-.772,10.816,0,4.005,0,8.011-1.544,10.415s-5.4,3.6-9.262,4.807c-3.473,1.2-6.561,2-9.648,4.006-2.7,2-4.631,5.207-6.56,8.011-2.316,3.6-4.631,6.809-7.333,7.611s-6.175-.4-10.034-1.6c-3.473-1.2-6.947-2.4-10.42-2.4s-6.947,1.2-10.42,2.4c-3.859,1.2-7.333,2.8-10.034,1.6-2.7-.8-5.017-4.006-7.332-7.611-1.93-2.8-3.859-6.009-6.561-8.011a26.111,26.111,0,0,0-9.648-4.006c-3.859-1.2-7.719-2.4-9.262-4.807s-1.544-6.41-1.544-10.415a51.028,51.028,0,0,0-.772-10.816,39.546,39.546,0,0,0-5.017-8.812c-2.315-3.205-5.016-6.41-5.016-9.614s2.315-6.409,5.016-9.613c1.93-2.8,4.246-5.608,5.017-8.813,1.158-3.2,1.158-7.211.772-10.815,0-4.006,0-8.012,1.544-10.415s5.4-3.606,9.262-4.808c3.473-1.2,6.56-2,9.648-4.005,2.7-2,4.631-5.208,6.561-8.012,2.315-3.6,4.631-6.809,7.332-7.611s6.174.4,10.034,1.6c3.473,1.2,6.947,2.4,10.42,2.4s6.947-1.2,10.42-2.4c3.859-1.2,7.332-2.8,10.034-1.6,2.7.8,5.016,4.006,7.333,7.611,1.93,2.8,3.859,6.009,6.56,8.012a26.13,26.13,0,0,0,9.648,4.005c3.859,1.2,7.718,2.4,9.262,4.808s1.544,6.409,1.544,10.415a51.066,51.066,0,0,0,.772,10.815,39.629,39.629,0,0,0,5.017,8.813c2.315,3.2,5.017,6.409,5.017,9.613s-2.316,6.409-5.017,9.614A39.6,39.6,0,0,0,710.766,302.19Z" transform="translate(0 0)" fill="#016160"/>
    </g>
    <g id="Group_2" data-name="Group 2" transform="translate(0 -25)">
      <path id="Path_10" data-name="Path 10" d="M616.787,557.184l-12.126-13.692v13.692h-3.533V528.876h3.533v12.849L616.3,528.876h4.417l-11.966,13.773L621.2,557.184Z" fill="#016160"/>
      <path id="Path_11" data-name="Path 11" d="M622.527,549.113V548.03h3.534v1.284c0,3.011,2.73,5.059,7.066,5.059,4.055,0,6.706-1.847,6.706-4.9,0-7.388-16.663-3.373-16.663-13.371,0-4.3,2.97-7.75,9.636-7.75s9.958,3.373,9.958,8.151v1.246H639.27v-1.366c0-2.73-2.369-4.658-6.464-4.658-3.9,0-6.1,1.687-6.1,4.3,0,6.425,16.622,2.932,16.663,13.291.04,4.738-3.493,8.392-10.32,8.392C626.3,557.706,622.527,554.132,622.527,549.113Z" fill="#016160"/>
      <path id="Path_12" data-name="Path 12" d="M663.2,549.8h-11l-2.489,7.388h-3.452l9.033-28.308h4.858l9.075,28.308h-3.493Zm-9.878-3.373h8.793L657.7,532.571Z" fill="#016160"/>
    </g>
    <g id="Group_3" data-name="Group 3" transform="translate(-11 -27)">
      <path id="Path_13" data-name="Path 13" d="M546.672,429.363V409.055c0-9.8,6.507-15.948,18.95-15.948s19.022,6.15,19.022,15.948v3.36h-6.507v-2.86c0-6.722-3.791-10.441-12.444-10.441-8.867,0-12.728,3.719-12.728,10.441v19.307c0,6.723,3.861,10.441,12.657,10.441,8.724,0,12.515-3.718,12.515-10.441V426h6.507v3.361c0,9.8-6.507,15.947-18.951,15.947S546.672,439.16,546.672,429.363Z" fill="#016160"/>
      <path id="Path_14" data-name="Path 14" d="M593.083,429.435V409.269c0-9.94,6.436-16.162,19.093-16.162,12.728,0,19.093,6.222,19.093,16.162v20.166c0,9.8-6.365,15.946-19.021,15.946C599.519,445.381,593.083,439.232,593.083,429.435Zm31.893-.573V409.77c0-6.865-3.575-10.656-12.728-10.656-9.225,0-12.872,3.791-12.872,10.656v19.092c0,6.794,3.575,10.512,12.8,10.512S624.976,435.656,624.976,428.862Z" fill="#016160"/>
      <path id="Path_15" data-name="Path 15" d="M670.246,444.452,661.092,423.5H647.219v20.952h-6.292V394.037h19.735c9.868,0,15.446,4.935,15.446,13.23V410.2c0,6.149-3.073,10.44-8.58,12.3l9.3,21.954Zm-23.027-26.959h13.8c6.005,0,8.866-2.432,8.866-7.294v-2.932c0-4.792-2.861-7.3-8.8-7.3H647.219Z" fill="#016160"/>
      <path id="Path_16" data-name="Path 16" d="M684.262,429.435V409.269c0-9.94,6.436-16.162,19.093-16.162,12.729,0,19.093,6.222,19.093,16.162v20.166c0,9.8-6.364,15.946-19.021,15.946C690.7,445.381,684.262,439.232,684.262,429.435Zm31.893-.573V409.77c0-6.865-3.575-10.656-12.728-10.656-9.225,0-12.872,3.791-12.872,10.656v19.092c0,6.794,3.575,10.512,12.8,10.512S716.155,435.656,716.155,428.862Z" fill="#016160"/>
      <path id="Path_17" data-name="Path 17" d="M766.644,394.037v50.415h-5.865l-22.811-38.83v38.83h-5.862V394.037h5.862l22.811,38.9v-38.9Z" fill="#016160"/>
      <path id="Path_18" data-name="Path 18" d="M803.834,431.294H784.239l-4.433,13.158h-6.149l16.088-50.415H798.4l16.163,50.415h-6.221Zm-17.592-6.007H801.9l-7.868-24.67Z" fill="#016160"/>
    </g>
    <g id="Group_5" data-name="Group 5" transform="translate(-1 -25)">
      <rect id="Rectangle_1" data-name="Rectangle 1" width="45.883" height="29.824" transform="translate(546.41 528.118)" fill="#006c35"/>
      <g id="Group_4" data-name="Group 4">
        <path id="Path_19" data-name="Path 19" d="M581.29,548.225a1.354,1.354,0,0,0-.143-.007H578.69v-.3a1.4,1.4,0,1,0-2.794,0v.3h-18.34a1.4,1.4,0,1,0,0,2.794H575.9v.3a1.4,1.4,0,0,0,1.4,1.4h0a1.4,1.4,0,0,0,1.4-1.4v-.3h2.457a1.4,1.4,0,0,0,.143-2.787Z" fill="#f0f9ff"/>
        <path id="Path_20" data-name="Path 20" d="M561.61,545.3a3.336,3.336,0,0,0,3.332-3.333v-5.313a.538.538,0,0,1,1.077,0v5.313a3.331,3.331,0,0,0,5.688,2.356c.029-.03.058-.06.086-.091l.024-.025a3.316,3.316,0,0,0,.867-2.24,1.4,1.4,0,1,0-2.794,0,.538.538,0,0,1-.538.538h0a.54.54,0,0,1-.539-.539v-5.313a3.332,3.332,0,0,0-6.665,0v5.313a.539.539,0,1,1-1.077,0,1.4,1.4,0,0,0-2.794,0A3.337,3.337,0,0,0,561.61,545.3Z" fill="#f0f9ff"/>
        <path id="Path_21" data-name="Path 21" d="M571.287,538.056h0a1.4,1.4,0,0,0,1.4-1.4.538.538,0,0,1,1.077,0v5.313a3.333,3.333,0,1,0,6.665,0v-7.248a1.4,1.4,0,0,0-2.794,0v7.248a.539.539,0,0,1-1.077,0v-5.313a3.332,3.332,0,0,0-6.665,0A1.4,1.4,0,0,0,571.287,538.056Z" fill="#f0f9ff"/>
        <path id="Path_22" data-name="Path 22" d="M559.674,539.393a1.4,1.4,0,0,0,1.4-1.4v-3.271a1.4,1.4,0,0,0-2.794,0v3.271A1.4,1.4,0,0,0,559.674,539.393Z" fill="#f0f9ff"/>
      </g>
    </g>
    <g id="Group_6" data-name="Group 6" transform="translate(-14 -25)">
      <path id="Path_23" data-name="Path 23" d="M596.864,508.278h-10V474.984l-9.719,33.294h-7.929L559.5,475.127v33.151h-10V457.552h13.86l9.86,29.935L583,457.552h13.86Z" fill="#85bd14"/>
      <path id="Path_24" data-name="Path 24" d="M629.38,467.555v11.074h18.792v10H629.38v9.644h21.65v10H618.307V457.552H651.03v10Z" fill="#85bd14"/>
      <path id="Path_25" data-name="Path 25" d="M740.419,467.555v11.074h18.792v10H740.419v9.644h21.65v10H729.346V457.552h32.723v10Z" fill="#85bd14"/>
      <path id="Path_26" data-name="Path 26" d="M706.049,467.555h-13.5v40.723H681.472V467.555H667.825v-10h38.224Z" fill="#85bd14"/>
      <path id="Path_27" data-name="Path 27" d="M800.941,489.988h-8.929v18.29H780.938V457.552H802.3c10,0,16.648,5.716,16.648,14.646v3.144a13.477,13.477,0,0,1-7.145,12.432l7.788,20.5h-11.5Zm-8.929-10h11c3,0,4.858-1.5,4.858-4.144V471.7c0-2.643-1.856-4.143-4.786-4.143H792.012Z" fill="#85bd14"/>
    </g>
  </g>
</svg>
